<mxfile host="Electron" modified="2023-05-12T14:43:05.305Z" agent="Mozilla/5.0 (Macintosh; Intel Mac OS X 10_15_7) AppleWebKit/537.36 (KHTML, like Gecko) draw.io/21.1.2 Chrome/106.0.5249.199 Electron/21.4.3 Safari/537.36" etag="BNRg_ayJu6xtxG-Tuf_z" version="21.1.2" type="device">
  <diagram name="Page-1" id="rDhYO_66N8r3mqo4uv0N">
    <mxGraphModel dx="1114" dy="924" grid="1" gridSize="10" guides="1" tooltips="1" connect="1" arrows="1" fold="1" page="1" pageScale="1" pageWidth="850" pageHeight="1100" math="0" shadow="0">
      <root>
        <mxCell id="0" />
        <mxCell id="1" parent="0" />
        <mxCell id="7T9lzJNc8Pz41XD1n-u8-8" style="edgeStyle=orthogonalEdgeStyle;rounded=0;orthogonalLoop=1;jettySize=auto;html=1;exitX=1;exitY=0;exitDx=0;exitDy=15;exitPerimeter=0;entryX=0;entryY=0.5;entryDx=0;entryDy=0;" edge="1" parent="1" source="7T9lzJNc8Pz41XD1n-u8-1" target="7T9lzJNc8Pz41XD1n-u8-6">
          <mxGeometry relative="1" as="geometry" />
        </mxCell>
        <mxCell id="7T9lzJNc8Pz41XD1n-u8-1" value="" style="shape=cylinder3;whiteSpace=wrap;html=1;boundedLbl=1;backgroundOutline=1;size=15;" vertex="1" parent="1">
          <mxGeometry x="390" y="430" width="60" height="80" as="geometry" />
        </mxCell>
        <mxCell id="7T9lzJNc8Pz41XD1n-u8-2" value="ORACLE" style="text;html=1;strokeColor=none;fillColor=none;align=center;verticalAlign=middle;whiteSpace=wrap;rounded=0;" vertex="1" parent="1">
          <mxGeometry x="390" y="520" width="60" height="30" as="geometry" />
        </mxCell>
        <mxCell id="7T9lzJNc8Pz41XD1n-u8-5" value="GUI&lt;br style=&quot;border-color: var(--border-color);&quot;&gt;SQL Developer" style="rounded=0;whiteSpace=wrap;html=1;" vertex="1" parent="1">
          <mxGeometry x="550" y="450" width="120" height="60" as="geometry" />
        </mxCell>
        <mxCell id="7T9lzJNc8Pz41XD1n-u8-9" style="edgeStyle=orthogonalEdgeStyle;rounded=0;orthogonalLoop=1;jettySize=auto;html=1;exitX=1;exitY=0.5;exitDx=0;exitDy=0;" edge="1" parent="1" source="7T9lzJNc8Pz41XD1n-u8-6" target="7T9lzJNc8Pz41XD1n-u8-7">
          <mxGeometry relative="1" as="geometry" />
        </mxCell>
        <mxCell id="7T9lzJNc8Pz41XD1n-u8-6" value="Development Enviroment" style="rounded=0;whiteSpace=wrap;html=1;" vertex="1" parent="1">
          <mxGeometry x="530" y="340" width="140" height="60" as="geometry" />
        </mxCell>
        <mxCell id="7T9lzJNc8Pz41XD1n-u8-7" value="Developer" style="shape=umlActor;verticalLabelPosition=bottom;verticalAlign=top;html=1;outlineConnect=0;" vertex="1" parent="1">
          <mxGeometry x="770" y="340" width="30" height="60" as="geometry" />
        </mxCell>
        <mxCell id="7T9lzJNc8Pz41XD1n-u8-13" style="edgeStyle=orthogonalEdgeStyle;rounded=0;orthogonalLoop=1;jettySize=auto;html=1;exitX=0.5;exitY=1;exitDx=0;exitDy=0;entryX=0;entryY=0;entryDx=0;entryDy=27.5;entryPerimeter=0;" edge="1" parent="1" source="7T9lzJNc8Pz41XD1n-u8-10" target="7T9lzJNc8Pz41XD1n-u8-1">
          <mxGeometry relative="1" as="geometry" />
        </mxCell>
        <mxCell id="7T9lzJNc8Pz41XD1n-u8-10" value="Application&lt;br&gt;Modle Layer" style="rounded=0;whiteSpace=wrap;html=1;" vertex="1" parent="1">
          <mxGeometry x="210" y="370" width="120" height="60" as="geometry" />
        </mxCell>
        <mxCell id="7T9lzJNc8Pz41XD1n-u8-12" style="edgeStyle=orthogonalEdgeStyle;rounded=0;orthogonalLoop=1;jettySize=auto;html=1;entryX=0.5;entryY=0;entryDx=0;entryDy=0;" edge="1" parent="1" source="7T9lzJNc8Pz41XD1n-u8-11" target="7T9lzJNc8Pz41XD1n-u8-10">
          <mxGeometry relative="1" as="geometry" />
        </mxCell>
        <mxCell id="7T9lzJNc8Pz41XD1n-u8-11" value="APP UI View" style="rounded=0;whiteSpace=wrap;html=1;" vertex="1" parent="1">
          <mxGeometry x="30" y="250" width="120" height="60" as="geometry" />
        </mxCell>
        <mxCell id="7T9lzJNc8Pz41XD1n-u8-14" value="Firewall" style="text;html=1;strokeColor=none;fillColor=none;align=center;verticalAlign=middle;whiteSpace=wrap;rounded=0;" vertex="1" parent="1">
          <mxGeometry x="270" y="290" width="60" height="30" as="geometry" />
        </mxCell>
        <mxCell id="7T9lzJNc8Pz41XD1n-u8-18" style="edgeStyle=orthogonalEdgeStyle;rounded=0;orthogonalLoop=1;jettySize=auto;html=1;entryX=0.5;entryY=0;entryDx=0;entryDy=0;" edge="1" parent="1" source="7T9lzJNc8Pz41XD1n-u8-15" target="7T9lzJNc8Pz41XD1n-u8-11">
          <mxGeometry relative="1" as="geometry" />
        </mxCell>
        <mxCell id="7T9lzJNc8Pz41XD1n-u8-15" value="Public User" style="shape=umlActor;verticalLabelPosition=bottom;verticalAlign=top;html=1;outlineConnect=0;" vertex="1" parent="1">
          <mxGeometry x="75" y="50" width="30" height="60" as="geometry" />
        </mxCell>
        <mxCell id="7T9lzJNc8Pz41XD1n-u8-19" value="Database Management System" style="text;html=1;strokeColor=none;fillColor=none;align=center;verticalAlign=middle;whiteSpace=wrap;rounded=0;" vertex="1" parent="1">
          <mxGeometry x="320" y="10" width="200" height="30" as="geometry" />
        </mxCell>
      </root>
    </mxGraphModel>
  </diagram>
</mxfile>
